<mxfile host="app.diagrams.net" modified="2022-07-20T13:05:50.874Z" agent="5.0 (Windows NT 10.0; Win64; x64) AppleWebKit/537.36 (KHTML, like Gecko) Chrome/103.0.5060.114 Safari/537.36" etag="1ZPtbeac9w1NFbWPK9Ej" version="20.1.2" type="github">
  <diagram id="PjaSomSAxZqeQff5UeBx" name="Page-1">
    <mxGraphModel dx="868" dy="492" grid="1" gridSize="10" guides="1" tooltips="1" connect="1" arrows="1" fold="1" page="1" pageScale="1" pageWidth="850" pageHeight="1100" math="0" shadow="0">
      <root>
        <mxCell id="0" />
        <mxCell id="1" parent="0" />
        <mxCell id="5i8q8Ae321yIFf5_sVQl-9" style="rounded=0;orthogonalLoop=1;jettySize=auto;html=1;entryX=0;entryY=0.5;entryDx=0;entryDy=0;" edge="1" parent="1" source="5i8q8Ae321yIFf5_sVQl-1" target="5i8q8Ae321yIFf5_sVQl-6">
          <mxGeometry relative="1" as="geometry" />
        </mxCell>
        <mxCell id="5i8q8Ae321yIFf5_sVQl-10" style="edgeStyle=none;rounded=0;orthogonalLoop=1;jettySize=auto;html=1;entryX=0;entryY=0.5;entryDx=0;entryDy=0;" edge="1" parent="1" source="5i8q8Ae321yIFf5_sVQl-1" target="5i8q8Ae321yIFf5_sVQl-4">
          <mxGeometry relative="1" as="geometry" />
        </mxCell>
        <mxCell id="5i8q8Ae321yIFf5_sVQl-11" style="edgeStyle=none;rounded=0;orthogonalLoop=1;jettySize=auto;html=1;entryX=0;entryY=0.5;entryDx=0;entryDy=0;" edge="1" parent="1" source="5i8q8Ae321yIFf5_sVQl-1" target="5i8q8Ae321yIFf5_sVQl-5">
          <mxGeometry relative="1" as="geometry" />
        </mxCell>
        <mxCell id="5i8q8Ae321yIFf5_sVQl-12" style="edgeStyle=none;rounded=0;orthogonalLoop=1;jettySize=auto;html=1;entryX=0;entryY=0.5;entryDx=0;entryDy=0;" edge="1" parent="1" source="5i8q8Ae321yIFf5_sVQl-1" target="5i8q8Ae321yIFf5_sVQl-8">
          <mxGeometry relative="1" as="geometry" />
        </mxCell>
        <mxCell id="5i8q8Ae321yIFf5_sVQl-1" value="Jemaat" style="shape=umlActor;verticalLabelPosition=bottom;verticalAlign=top;html=1;outlineConnect=0;" vertex="1" parent="1">
          <mxGeometry x="50" y="260" width="30" height="60" as="geometry" />
        </mxCell>
        <mxCell id="5i8q8Ae321yIFf5_sVQl-4" value="Daftar &lt;br&gt;Jemaat baru" style="ellipse;whiteSpace=wrap;html=1;" vertex="1" parent="1">
          <mxGeometry x="230" y="160" width="110" height="70" as="geometry" />
        </mxCell>
        <mxCell id="5i8q8Ae321yIFf5_sVQl-5" value="Ubah data&lt;br&gt;Jemaat" style="ellipse;whiteSpace=wrap;html=1;" vertex="1" parent="1">
          <mxGeometry x="230" y="330" width="110" height="70" as="geometry" />
        </mxCell>
        <mxCell id="5i8q8Ae321yIFf5_sVQl-6" value="Login" style="ellipse;whiteSpace=wrap;html=1;" vertex="1" parent="1">
          <mxGeometry x="230" y="60" width="110" height="70" as="geometry" />
        </mxCell>
        <mxCell id="5i8q8Ae321yIFf5_sVQl-7" value="Hapus data&lt;br&gt;Jemaat" style="ellipse;whiteSpace=wrap;html=1;" vertex="1" parent="1">
          <mxGeometry x="230" y="420" width="110" height="70" as="geometry" />
        </mxCell>
        <mxCell id="5i8q8Ae321yIFf5_sVQl-8" value="Logout" style="ellipse;whiteSpace=wrap;html=1;" vertex="1" parent="1">
          <mxGeometry x="230" y="500" width="110" height="70" as="geometry" />
        </mxCell>
        <mxCell id="5i8q8Ae321yIFf5_sVQl-18" style="edgeStyle=none;rounded=0;orthogonalLoop=1;jettySize=auto;html=1;entryX=1;entryY=0.5;entryDx=0;entryDy=0;" edge="1" parent="1" source="5i8q8Ae321yIFf5_sVQl-17" target="5i8q8Ae321yIFf5_sVQl-6">
          <mxGeometry relative="1" as="geometry" />
        </mxCell>
        <mxCell id="5i8q8Ae321yIFf5_sVQl-19" style="edgeStyle=none;rounded=0;orthogonalLoop=1;jettySize=auto;html=1;entryX=1;entryY=0.5;entryDx=0;entryDy=0;" edge="1" parent="1" source="5i8q8Ae321yIFf5_sVQl-17" target="5i8q8Ae321yIFf5_sVQl-4">
          <mxGeometry relative="1" as="geometry" />
        </mxCell>
        <mxCell id="5i8q8Ae321yIFf5_sVQl-20" style="edgeStyle=none;rounded=0;orthogonalLoop=1;jettySize=auto;html=1;entryX=1;entryY=0.5;entryDx=0;entryDy=0;" edge="1" parent="1" source="5i8q8Ae321yIFf5_sVQl-17" target="5i8q8Ae321yIFf5_sVQl-5">
          <mxGeometry relative="1" as="geometry" />
        </mxCell>
        <mxCell id="5i8q8Ae321yIFf5_sVQl-21" style="edgeStyle=none;rounded=0;orthogonalLoop=1;jettySize=auto;html=1;entryX=1;entryY=0.5;entryDx=0;entryDy=0;" edge="1" parent="1" source="5i8q8Ae321yIFf5_sVQl-17" target="5i8q8Ae321yIFf5_sVQl-7">
          <mxGeometry relative="1" as="geometry" />
        </mxCell>
        <mxCell id="5i8q8Ae321yIFf5_sVQl-22" style="edgeStyle=none;rounded=0;orthogonalLoop=1;jettySize=auto;html=1;entryX=1;entryY=0.5;entryDx=0;entryDy=0;" edge="1" parent="1" source="5i8q8Ae321yIFf5_sVQl-17" target="5i8q8Ae321yIFf5_sVQl-8">
          <mxGeometry relative="1" as="geometry" />
        </mxCell>
        <mxCell id="5i8q8Ae321yIFf5_sVQl-17" value="Pengurus" style="shape=umlActor;verticalLabelPosition=bottom;verticalAlign=top;html=1;outlineConnect=0;" vertex="1" parent="1">
          <mxGeometry x="500" y="260" width="30" height="60" as="geometry" />
        </mxCell>
      </root>
    </mxGraphModel>
  </diagram>
</mxfile>
